<svg width="85" height="85" viewBox="0 0 85 85" fill="none" xmlns="http://www.w3.org/2000/svg">
<g id="united-kingdom 1">
<g id="_x30_1_United_Kingdom_x2C__country_x2C__national_x2C__flag_x2C__world_flag">
<g id="XMLID_1_">
<path id="XMLID_1007_" d="M42.6123 88.4653C67.8599 88.4653 88.3271 67.9981 88.3271 42.7505C88.3271 17.5029 67.8599 -2.96436 42.6123 -2.96436C17.3647 -2.96436 -3.10254 17.5029 -3.10254 42.7505C-3.10254 67.9981 17.3647 88.4653 42.6123 88.4653Z" fill="#0053B5"/>
<path id="XMLID_1006_" d="M42.6124 83.7034C65.23 83.7034 83.5652 65.3681 83.5652 42.7505C83.5652 20.1328 65.23 1.79761 42.6124 1.79761C19.9947 1.79761 1.65948 20.1328 1.65948 42.7505C1.65948 65.3681 19.9947 83.7034 42.6124 83.7034Z" fill="white"/>
</g>
<g id="XMLID_712_">
<g id="Group">
<path id="XMLID_1005_" d="M9.8161 27.4335C9.32124 28.4912 8.87628 29.5766 8.4837 30.6869H14.464L9.8161 27.4335Z" fill="#0053B5"/>
<path id="XMLID_1004_" d="M30.5486 8.62186C25.275 10.4861 20.5631 13.5372 16.733 17.4551L30.5486 26.6655V8.62186Z" fill="#0053B5"/>
<path id="XMLID_1003_" d="M68.4914 17.4553C64.6613 13.5371 59.9494 10.4861 54.6758 8.62204V26.6659L68.4914 17.4553Z" fill="#0053B5"/>
<path id="XMLID_1002_" d="M75.4082 58.0674C75.903 57.0097 76.348 55.9243 76.7405 54.814H70.7603L75.4082 58.0674Z" fill="#0053B5"/>
<path id="XMLID_1001_" d="M76.7405 30.6869C76.348 29.5764 75.903 28.491 75.4082 27.4335L70.7603 30.6869H76.7405Z" fill="#0053B5"/>
<path id="XMLID_1000_" d="M16.733 68.0456C20.5631 71.9636 25.275 75.0149 30.5486 76.8789V58.8351L16.733 68.0456Z" fill="#0053B5"/>
<path id="XMLID_999_" d="M8.4837 54.814C8.87628 55.9245 9.32124 57.0099 9.8161 58.0674L14.464 54.814H8.4837Z" fill="#0053B5"/>
<path id="XMLID_998_" d="M54.6754 76.8791C59.949 75.0149 64.6609 71.9638 68.491 68.0458L54.6754 58.8354V76.8791Z" fill="#0053B5"/>
</g>
<g id="XMLID_721_">
<path id="XMLID_997_" d="M30.5484 26.6657L16.7328 17.4553C15.9456 18.2607 15.1955 19.1024 14.4856 19.9782L30.5486 30.6869H20.4955L11.4149 24.4004C10.8358 25.3827 10.3021 26.3945 9.81599 27.4335L14.4639 30.6869H8.48359C8.0213 31.9947 7.63101 33.3363 7.31958 34.7081H30.5484V50.7929H7.31958C7.63082 52.1647 8.0213 53.5062 8.48359 54.8141H14.4639L9.81599 58.0674C10.3021 59.1063 10.8358 60.1183 11.4149 61.1006L20.4955 54.8141H30.5486L14.4856 65.5228C15.1955 66.3986 15.9456 67.2403 16.7328 68.0457L30.5484 58.8353V76.8791C31.8563 77.3414 33.1978 77.7317 34.5696 78.0431C34.5696 75.5966 34.5696 9.94 34.5696 7.45807C33.1978 7.76931 31.8563 8.15979 30.5484 8.62208V26.6657Z" fill="white"/>
<path id="XMLID_996_" d="M54.6755 34.7081H77.9044C77.5932 33.3363 77.2027 31.9947 76.7404 30.6869H70.7601L75.408 27.4335C74.9219 26.3947 74.3882 25.3826 73.8091 24.4003L64.7284 30.6869H54.6754L70.7384 19.9782C70.0285 19.1024 69.2784 18.2607 68.4911 17.4553L54.6755 26.6657V8.62187C53.3677 8.15958 52.0262 7.76929 50.6544 7.45786V78.0429C52.0262 77.7317 53.3677 77.3412 54.6755 76.8789V58.835L68.4911 68.0454C69.2784 67.2401 70.0285 66.3984 70.7384 65.5226L54.6754 54.8139H64.7284L73.8091 61.1004C74.3882 60.1181 74.9221 59.1063 75.408 58.0672L70.7601 54.8139H76.7404C77.2027 53.506 77.593 52.1645 77.9044 50.7927H54.6755V34.7081Z" fill="white"/>
</g>
<g id="XMLID_713_">
<path id="XMLID_995_" d="M7.31981 50.7929H30.5487V34.7081H7.31981C6.15789 39.8285 6.08646 45.3579 7.31981 50.7929Z" fill="#D80027"/>
<path id="XMLID_994_" d="M77.9047 34.7081H54.6758V50.7929H77.9047C79.0666 45.6724 79.1378 40.143 77.9047 34.7081Z" fill="#D80027"/>
<path id="XMLID_993_" d="M34.5697 7.45806V78.0431C39.6901 79.205 45.2195 79.2764 50.6545 78.0431C50.6545 73.4648 50.6545 10.592 50.6545 7.45806C45.5342 6.29614 40.0046 6.22471 34.5697 7.45806Z" fill="#D80027"/>
<path id="XMLID_992_" d="M73.8096 24.4004C72.8947 22.8484 71.8676 21.3706 70.7389 19.9782L54.6758 30.6869H64.7289L73.8096 24.4004Z" fill="#D80027"/>
<path id="XMLID_991_" d="M11.4149 24.4004L20.4956 30.6869H30.5487L14.4856 19.9782C13.3569 21.3706 12.3298 22.8484 11.4149 24.4004Z" fill="#D80027"/>
<path id="XMLID_990_" d="M11.4149 61.1006C12.3298 62.6527 13.3569 64.1304 14.4856 65.5228L30.5487 54.8141H20.4956L11.4149 61.1006Z" fill="#D80027"/>
<path id="XMLID_989_" d="M54.6758 54.8141L70.7389 65.5228C71.8674 64.1304 72.8947 62.6528 73.8096 61.1006L64.7289 54.8141H54.6758Z" fill="#D80027"/>
</g>
</g>
</g>
</g>
</svg>
