<svg width="25" height="25" viewBox="0 0 25 25" fill="none" xmlns="http://www.w3.org/2000/svg">
<g id="Group">
<g id="Group_2">
<path id="Vector" d="M12.7165 0.936584C6.09555 0.936584 0.708496 6.32363 0.708496 12.9446C0.708496 19.5655 6.09555 24.9526 12.7165 24.9526C19.3375 24.9526 24.7245 19.5655 24.7245 12.9446C24.7245 6.32363 19.3375 0.936584 12.7165 0.936584ZM19.4277 9.78459L11.7535 17.3987C11.302 17.8501 10.5797 17.8802 10.0982 17.4288L6.03536 13.7271C5.55383 13.2756 5.52374 12.5233 5.94507 12.0417C6.3965 11.5602 7.14888 11.5301 7.6304 11.9815L10.8506 14.9309L17.7123 8.06916C18.1938 7.58764 18.9462 7.58764 19.4277 8.06916C19.9093 8.55068 19.9093 9.30306 19.4277 9.78459Z" fill="#363636"/>
</g>
</g>
</svg>
